<svg width="24.000000" height="24.000000" viewBox="0 0 24 24" fill="none" xmlns="http://www.w3.org/2000/svg" xmlns:xlink="http://www.w3.org/1999/xlink">
	<desc>
			Created with Pixso.
	</desc>
	<defs>
		<clipPath id="clip2_57">
			<rect id="Почта" width="24.000000" height="24.000000" fill="white" fill-opacity="0"/>
		</clipPath>
	</defs>
	<g clip-path="url(#clip2_57)">
		<path id="path" d="M2 19.5L22 19.5L22 12L22 4.5L12 4.5L2 4.5L2 12L2 19.5Z" fill="#000000" fill-opacity="0" fill-rule="nonzero"/>
		<path id="path" d="M22 19.5L22 12L22 4.5L12 4.5L2 4.5L2 12L2 19.5L22 19.5Z" stroke="#FFFFFF" stroke-opacity="1.000000" stroke-width="1.000000" stroke-linejoin="round"/>
		<path id="path" d="M1.72 4.89L1.7 4.9C1.47 4.73 1.43 4.42 1.59 4.19C1.76 3.97 2.07 3.93 2.29 4.09L2.3 4.12L1.72 4.89ZM21.69 4.12L21.7 4.09C21.92 3.93 22.23 3.97 22.4 4.19C22.56 4.42 22.52 4.73 22.3 4.9L22.27 4.89L21.69 4.12Z" fill="#000000" fill-opacity="0" fill-rule="nonzero"/>
		<path id="path" d="M2 4.5L12 12L22 4.5" stroke="#FFFFFF" stroke-opacity="1.000000" stroke-width="1.000000" stroke-linejoin="round" stroke-linecap="round"/>
		<path id="path" d="M11.98 4.02L12 4C12.28 4 12.5 4.21 12.5 4.5C12.5 4.78 12.28 5 12 5L11.98 4.97L11.98 4.02ZM2.47 11.98L2.5 12C2.5 12.28 2.28 12.5 2 12.5C1.71 12.5 1.5 12.28 1.5 12L1.52 11.98L2.47 11.98Z" fill="#000000" fill-opacity="0" fill-rule="nonzero"/>
		<path id="path" d="M12 4.5L2 4.5L2 12" stroke="#FFFFFF" stroke-opacity="1.000000" stroke-width="1.000000" stroke-linejoin="round" stroke-linecap="round"/>
		<path id="path" d="M22.48 11.98L22.5 12C22.5 12.28 22.28 12.5 22 12.5C21.72 12.5 21.5 12.28 21.5 12L21.52 11.98L22.48 11.98ZM12.02 4.97L12 5C11.72 5 11.5 4.78 11.5 4.5C11.5 4.21 11.72 4 12 4L12.02 4.02L12.02 4.97Z" fill="#000000" fill-opacity="0" fill-rule="nonzero"/>
		<path id="path" d="M22 12L22 4.5L12 4.5" stroke="#FFFFFF" stroke-opacity="1.000000" stroke-width="1.000000" stroke-linejoin="round" stroke-linecap="round"/>
	</g>
</svg>
